<svg width="240" height="59" clip-rule="evenodd" fill-rule="evenodd" image-rendering="optimizeQuality" shape-rendering="geometricPrecision" text-rendering="geometricPrecision" viewBox="0 0 17429 4268" xmlns="http://www.w3.org/2000/svg"><defs><style>.str0{stroke:#373435;stroke-width:9.53301}.fil0,.fil1,.fil2{fill:#0c5081}.fil0,.fil1{fill-rule:nonzero}.fil0{fill:#201e1e}</style></defs><path class="fil0 str0" d="M3792 3798c0 14-1 28-4 41s-7 26-12 39-12 26-20 38c-8 13-18 26-28 40-6 8-13 15-19 23-7 7-13 14-19 21-6 6-12 12-18 17s-11 9-16 13c-9 7-22 14-37 20-15 7-32 13-52 19-19 6-37 11-54 14-18 3-34 5-49 5-16 0-30-1-42-4s-23-7-32-13-15-14-20-23-7-20-7-33c0-8 2-15 5-22 4-7 9-12 15-17s13-8 21-11c8-2 17-4 26-4 6 0 11 0 15 1 4 0 8 1 11 2 4 1 7 2 10 4 4 1 7 3 12 5 14 6 25 9 33 9 4 0 9-1 16-2s14-3 21-5 14-5 21-7c7-3 12-5 15-8 12-8 23-18 35-30s23-24 32-38c10-14 18-28 24-42s9-28 9-40c0-10-2-20-7-28s-11-16-18-23-15-12-24-17-18-9-26-12-16-5-23-7-13-2-17-2c-11 0-20 0-27 1s-14 2-20 3-11 3-17 5c-5 2-11 4-17 7-7 3-13 6-18 7-5 2-10 2-16 2-8 0-14-1-21-4-6-2-12-6-16-10s-8-9-10-14-4-11-4-16c0-10 2-19 5-27s7-15 13-21c5-6 11-11 18-14 7-4 14-6 22-8 4-1 9-2 14-2s10 0 15-1h20c7-4 14-9 24-15 9-6 19-13 28-20 10-7 20-15 30-23s19-16 27-24 14-15 19-23c5-7 7-13 7-19 0-11-5-19-15-25s-26-8-49-8c-18 0-38 2-61 5-23 4-45 9-67 16-9 3-19 7-28 11s-18 9-26 13c-8 5-16 10-22 15-7 5-12 11-16 16-1 1-2 4-2 9-1 5-1 12-1 21s-1 20-1 34-1 30-2 50c0 13-1 23-2 31 0 8-1 16-2 23s-1 15-2 22c-1 8-2 18-4 30-2 17-5 33-7 49-2 15-3 29-3 41v82c0 30-6 51-17 65s-27 20-49 20c-11 0-21-2-28-6-8-4-13-10-18-19-4-8-7-19-9-31-2-13-2-27-2-43 0 0 0-4 1-10s2-15 3-24c1-10 3-21 5-32 2-12 3-23 5-33 2-11 3-20 4-28s2-14 2-16c0-1 1-6 2-14s2-17 3-29c1-11 2-23 4-36 1-13 2-25 4-36 1-11 2-21 3-29s1-13 1-14c3-23 4-37 4-41 0-3 0-7-1-11s-1-9-2-13-1-8-2-12-1-6-1-7c0-12 1-22 3-33 2-10 6-20 10-28 12-23 25-35 39-37 9-1 17-3 26-5 8-2 16-5 24-7 37-12 67-22 89-29s36-12 43-14c9-3 18-5 27-7s19-3 30-4c10-1 22-2 34-2s26-1 42-1c9 0 20 2 32 5s23 8 34 13c11 6 21 12 30 20s16 16 21 24c2 4 4 8 6 14s4 11 5 17c2 6 3 12 4 18s1 11 1 15c0 23-9 46-27 70s-44 50-78 79c20 6 40 15 58 25s34 22 48 36c14 13 25 28 33 43s12 31 12 46zm891-117c0 17-6 35-18 55s-27 40-46 61c-19 20-40 40-64 59-23 19-47 36-70 51s-46 27-67 36-38 13-52 13c-19 0-35-4-49-12-13-8-24-19-33-33s-16-29-21-47c-5-17-9-36-11-54-4 11-10 23-18 35-8 13-15 25-24 37s-17 24-26 35-17 20-24 28c-10 11-22 22-35 32s-26 19-40 27-30 14-46 19-33 7-50 7c-15 0-28-3-39-9s-21-14-28-24c-8-10-13-21-17-34s-6-26-6-38c0-11 1-23 3-35s4-24 6-37c2-12 5-25 7-37s4-24 5-35c1-9 1-18 2-28s1-20 2-30 1-20 2-30 2-19 4-28c1-6 3-12 5-18s6-11 10-15 9-8 16-10c6-3 14-4 24-4 19 0 32 6 40 17s11 28 11 51c0 7 0 15-1 24s-2 18-4 28-3 19-5 29-4 19-6 28c-5 20-10 40-14 59s-7 36-7 51c0 10 2 18 5 24s8 9 13 9c13 0 26-4 40-12s27-18 41-30c13-12 26-25 37-39 12-14 22-27 30-38s16-24 24-40 16-33 23-50c8-17 15-35 22-52s14-32 19-45c8-18 17-31 27-41 10-9 20-14 30-14 11 0 20 2 25 7 6 4 8 13 8 25 0 5-1 12-2 22s-2 20-4 31-3 21-4 31-2 18-2 23v17c0 7 0 14 1 21 0 7 1 15 2 21 1 7 2 13 2 17 1 5 3 12 6 20s6 16 10 24c4 7 8 14 13 20s10 8 15 8c16 0 32-4 50-12 17-8 35-19 54-32 18-13 37-28 55-44s36-33 54-49l21-21c7-7 14-13 21-19 6-6 13-10 18-14 6-4 11-5 15-5 5 0 9 2 11 5 3 3 4 6 4 8zm374 36c0 8-4 18-11 30s-16 25-27 38-23 27-37 41c-13 14-26 27-39 39-8 7-19 17-33 30-15 13-31 27-49 42s-37 31-57 47-38 32-56 46c-17 14-33 26-46 37-13 10-23 18-29 22-19 12-36 22-52 28-16 7-30 10-43 10-10 0-19-1-26-3s-13-5-17-8-8-7-10-11-3-8-3-12c0-11 2-20 6-28s10-16 18-23 19-14 31-21c13-7 28-14 45-21 11-4 22-9 31-13s17-9 24-14 12-11 15-17c4-6 6-14 6-23 0-2-2-6-4-12-3-6-7-12-11-20-4-7-9-16-15-24-6-9-11-17-16-26s-10-17-15-24-8-14-11-19c-12-23-18-46-18-69 0-10 1-21 3-31 2-11 5-22 9-33 4-14 10-27 19-40s19-25 29-35c11-10 22-19 33-25s20-9 28-9c11 0 20 1 26 3 7 2 12 5 16 9s6 9 8 15 2 13 2 22c0 7-2 14-5 21-4 7-8 13-13 19s-11 12-16 17c-6 5-11 9-15 13-6 6-12 11-18 16s-10 9-13 13c0 19 5 36 14 52 4 8 10 17 17 29 7 11 14 23 21 35s14 23 20 34 11 19 15 26c4-2 11-6 19-12 9-6 19-13 30-21s24-17 37-28c13-10 26-21 39-31 13-11 26-21 38-32s23-21 33-30l21-21c6-6 10-11 14-14 4-4 8-7 11-9s6-3 10-3 7 2 10 4c3 3 5 6 6 9 2 3 2 7 3 10s1 5 1 5zm127-332c0 10-1 19-4 28s-7 17-13 25c-11 16-29 24-53 24-8 0-17-1-26-2-9-2-16-4-23-6-7-3-13-6-17-10-5-4-7-9-7-14 0-9 2-19 7-29s11-20 19-29 16-16 25-22 18-9 26-9c10 0 20 1 28 2s15 4 21 7 10 8 13 14 4 13 4 23zm279 369c0 7-3 16-8 26-5 11-12 22-21 36-9 13-20 27-33 42s-26 30-41 46c-16 17-33 34-52 50s-38 32-59 47-41 27-61 35-39 12-57 12c-21 0-39-4-54-11s-29-17-39-29c-11-12-20-26-27-42s-12-32-16-50c-4-17-7-35-8-53s-2-35-2-51c0-6 0-16 1-28 1-13 2-26 4-40s4-27 6-40 4-23 6-31c4-15 15-29 31-42s33-19 52-19 29 12 29 35c0 11-1 23-3 35l-6 36c-4 22-7 41-8 59-2 17-2 33-2 46 0 15 1 30 3 44s4 27 8 38 8 20 13 27 11 10 19 10c9 0 18-1 28-2 9-2 21-6 34-13 26-14 53-33 82-57 10-8 22-18 35-30s26-23 39-36c13-12 25-24 36-36s20-22 27-30c1-2 2-3 4-6 2-2 4-5 6-7s4-4 7-6c2-2 5-2 7-2 5 0 8 1 11 2 2 1 5 6 7 12 3 7 5 14 5 19zm712-34c0 6-1 12-3 19s-5 13-8 20-7 13-10 19c-4 6-7 11-11 15-10 12-20 25-32 38s-24 27-37 40-26 26-39 38-27 23-40 32c-10 7-21 14-30 20-10 6-20 12-30 16-10 5-21 9-33 11-11 3-24 4-38 4-23 0-41-5-56-13-15-9-27-21-36-36s-16-32-21-51-9-39-11-60c-4-28-8-51-13-68s-11-25-17-25-12 1-17 4c-6 3-13 9-21 18-9 9-19 23-32 41s-30 41-51 71c-7 10-16 21-26 34s-21 25-32 36-23 22-34 30c-11 9-22 15-31 18-38-8-56-44-56-108 0-16 2-40 5-71 2-14 4-29 6-44 2-16 5-31 9-47 3-16 8-31 12-46 5-15 10-29 17-42 4-7 8-13 12-17s9-7 14-9 9-3 15-4c5-1 10-1 15-1 4 0 9 1 13 3s8 6 11 10 6 9 8 15 3 13 3 21c0 7-1 13-2 20-1 6-3 13-5 20s-4 14-7 21c-2 8-4 16-7 26-2 6-4 14-7 24s-6 20-8 31c-3 11-6 21-8 31s-4 19-4 26c5-6 12-14 19-23s14-20 22-31l24-33c8-11 16-22 24-32 11-13 21-26 31-37 10-12 21-22 32-30s23-15 37-20c13-5 28-7 44-7 19 0 35 4 47 12s22 19 29 33 13 31 16 50c4 19 6 40 9 63 1 12 3 24 5 36s5 23 9 33 9 18 15 25c6 6 14 10 23 10 14 0 29-4 45-11s33-17 51-30 36-28 55-45 38-35 56-55c6-6 12-12 17-19 6-6 11-12 16-17s10-9 15-12 10-5 14-5c2 0 4 0 6 1 2 0 5 1 7 3 2 1 4 3 5 6 1 2 2 6 2 10zm130-72c0-6-1-13-2-19s-4-10-7-11c-10 0-21 4-32 13s-23 21-33 37-20 35-28 58-14 48-18 75c14-10 28-21 42-33 14-11 27-24 39-36 12-13 21-26 28-40s11-29 11-44zm350 83c0 5-4 15-12 30-16 22-33 45-52 67s-39 43-61 63-44 38-67 55-47 31-71 44c-24 12-48 22-71 29-24 7-47 11-70 11-51 0-91-14-119-43-29-29-43-72-43-131 0-23 2-46 5-69s9-45 16-67c8-22 18-44 30-65s27-42 45-62c7-7 14-15 23-21 9-7 18-13 28-18s21-10 31-13c11-3 22-5 33-5 16 0 29 3 41 9 11 6 21 14 28 24s13 21 17 34 5 27 5 41c0 26-10 54-30 83s-47 58-82 88c-11 9-24 20-39 31s-32 24-50 38c1 7 3 15 6 21 4 7 9 12 15 17s14 9 23 12 19 4 30 4c15 0 30-2 47-6 16-4 33-9 49-15s32-14 47-22 29-17 42-26c22-16 43-33 64-51 20-18 40-37 59-56l24-24c16-15 30-22 42-22 6 0 10 2 12 6s3 8 3 11z"/><path class="fil0 str0" d="M7048 3717c0 8-4 18-11 30s-16 25-27 38-23 27-37 41c-13 14-26 27-39 39-8 7-19 17-33 30-15 13-31 27-49 42s-37 31-57 47-38 32-56 46c-17 14-33 26-46 37-13 10-23 18-29 22-19 12-36 22-52 28-16 7-30 10-43 10-10 0-19-1-26-3s-13-5-17-8-8-7-10-11-3-8-3-12c0-11 2-20 6-28s10-16 18-23 19-14 31-21c13-7 28-14 45-21 11-4 22-9 31-13s17-9 24-14 12-11 15-17c4-6 6-14 6-23 0-2-2-6-4-12-3-6-7-12-11-20-4-7-9-16-15-24-6-9-11-17-16-26s-10-17-15-24-8-14-11-19c-12-23-18-46-18-69 0-10 1-21 3-31 2-11 5-22 9-33 4-14 10-27 19-40s19-25 29-35c11-10 22-19 33-25s20-9 28-9c11 0 20 1 26 3 7 2 12 5 16 9s6 9 8 15 2 13 2 22c0 7-2 14-5 21-4 7-8 13-13 19s-11 12-16 17c-6 5-11 9-15 13-6 6-12 11-18 16s-10 9-13 13c0 19 5 36 14 52 4 8 10 17 17 29 7 11 14 23 21 35s14 23 20 34 11 19 15 26c4-2 11-6 19-12 9-6 19-13 30-21s24-17 37-28c13-10 26-21 39-31 13-11 26-21 38-32s23-21 33-30l21-21c6-6 10-11 14-14 4-4 8-7 11-9s6-3 10-3 7 2 10 4c3 3 5 6 6 9 2 3 2 7 3 10s1 5 1 5zm383 0c0 8-4 18-11 30s-16 25-27 38-23 27-37 41c-13 14-26 27-39 39-8 7-19 17-33 30-15 13-31 27-49 42s-37 31-57 47-38 32-56 46c-17 14-33 26-46 37-13 10-23 18-29 22-19 12-36 22-52 28-16 7-30 10-43 10-10 0-19-1-26-3s-13-5-17-8-8-7-10-11-3-8-3-12c0-11 2-20 6-28s10-16 18-23 19-14 31-21c13-7 28-14 45-21 11-4 22-9 31-13s17-9 24-14 12-11 15-17c4-6 6-14 6-23 0-2-2-6-4-12-3-6-7-12-11-20-4-7-9-16-15-24-6-9-11-17-16-26s-10-17-15-24-8-14-11-19c-12-23-18-46-18-69 0-10 1-21 3-31 2-11 5-22 9-33 4-14 10-27 19-40s19-25 29-35c11-10 22-19 33-25s20-9 28-9c11 0 20 1 26 3 7 2 12 5 16 9s6 9 8 15 2 13 2 22c0 7-2 14-5 21-4 7-8 13-13 19s-11 12-16 17c-6 5-11 9-15 13-6 6-12 11-18 16s-10 9-13 13c0 19 5 36 14 52 4 8 10 17 17 29 7 11 14 23 21 35s14 23 20 34 11 19 15 26c4-2 11-6 19-12 9-6 19-13 30-21s24-17 37-28c13-10 26-21 39-31 13-11 26-21 38-32s23-21 33-30l21-21c6-6 10-11 14-14 4-4 8-7 11-9s6-3 10-3 7 2 10 4c3 3 5 6 6 9 2 3 2 7 3 10s1 5 1 5zm983-2c0 6-2 12-5 19s-9 14-17 23c-8 8-19 18-32 28-13 11-31 23-51 36-21 14-46 29-75 46s-63 36-101 58c-17 10-32 18-44 25s-21 13-28 17c-4 2-9 6-14 12-6 5-12 12-20 20-11 11-23 22-34 33-12 11-24 22-36 31s-25 17-38 22c-13 6-27 9-42 9-17 0-30-3-40-8-10-6-15-14-15-26 0-6 2-13 7-20s11-14 18-22c7-7 15-15 24-21 9-7 18-14 26-20 9-6 16-11 23-16s12-8 15-10c14-9 26-16 34-22s13-9 13-10c16-12 31-24 44-37s25-26 35-39c9-12 16-25 20-39 4-15 7-30 7-46 0-5-1-12-2-20-2-8-4-16-7-24s-7-14-11-20-9-8-15-8c-13 0-28 5-42 15-15 10-29 22-44 36-14 14-29 30-43 48s-29 38-44 59c-10 15-19 29-25 42s-10 24-13 35c-3 10-5 20-6 29s-2 16-2 23c0 8-2 16-6 24-3 8-7 14-13 20-5 6-11 11-17 14-6 4-13 5-19 5-19 0-32-6-39-18s-10-31-10-56v-11c0-7 1-15 1-24s1-20 1-30c0-11 1-21 1-30s1-17 1-23v-11c1-18 2-35 3-52s3-34 4-52c2-18 4-36 5-54 2-19 4-38 7-59 5-39 10-77 15-114s12-73 21-108c1-3 2-7 4-14s6-13 10-21c4-7 9-13 15-19 6-5 13-8 20-8 14 0 25 2 33 7 8 4 14 10 17 16 4 6 6 13 7 20s1 13 1 18-2 13-4 24c-3 11-7 26-11 46-7 30-13 63-20 97s-12 68-16 101c-1 7-2 15-3 24-1 10-2 20-3 31s-2 21-3 32-2 20-3 29c17-30 34-56 53-80 19-23 41-44 65-62 17-12 34-21 51-28 17-6 34-10 50-10 18 0 35 4 51 13s30 20 42 34 21 30 28 47 10 34 10 52c0 3 0 7-1 13s-2 12-4 19-5 14-8 21c-4 7-8 14-13 21 25-16 50-31 72-46 23-15 46-29 69-43 11-7 21-13 28-18s14-9 19-13c15-10 26-14 32-14 11 0 19 4 24 10 5 7 7 14 7 22zm132-66c0-6-1-13-2-19s-4-10-7-11c-10 0-21 4-32 13s-23 21-33 37-20 35-28 58-14 48-18 75c14-10 28-21 42-33 14-11 27-24 39-36 12-13 21-26 28-40s11-29 11-44zm350 83c0 5-4 15-12 30-16 22-33 45-52 67s-39 43-61 63-44 38-67 55-47 31-71 44c-24 12-48 22-71 29-24 7-47 11-70 11-51 0-91-14-119-43-29-29-43-72-43-131 0-23 2-46 5-69s9-45 16-67c8-22 18-44 30-65s27-42 45-62c7-7 14-15 23-21 9-7 18-13 28-18s21-10 31-13c11-3 22-5 33-5 16 0 29 3 41 9 11 6 21 14 28 24s13 21 17 34 5 27 5 41c0 26-10 54-30 83s-47 58-82 88c-11 9-24 20-39 31s-32 24-50 38c1 7 3 15 6 21 4 7 9 12 15 17s14 9 23 12 19 4 30 4c15 0 30-2 47-6 16-4 33-9 49-15s32-14 47-22 29-17 42-26c22-16 43-33 64-51 20-18 40-37 59-56l24-24c16-15 30-22 42-22 6 0 10 2 12 6s3 8 3 11zm166 45c1-9 3-20 4-33s3-28 4-48c1-10 1-18 2-23s1-9 1-13c0-7 0-11-1-14-1-4-3-6-7-7s-9-2-17-3c-13 9-27 20-40 32-13 13-26 26-38 41s-24 30-34 46c-11 16-20 31-28 46-9 16-16 32-21 48s-8 29-8 41c0 5 2 8 5 10s7 2 11 2c9 0 19-2 30-7 11-4 22-10 33-16s22-13 32-20 19-13 27-19c3-2 6-5 11-9s9-10 14-15c5-6 9-12 12-19 4-7 6-13 6-20zm99-77c-2 20-4 42-6 66-1 24-3 51-6 80-1 11-2 23-3 37s-3 29-4 44c-2 15-3 29-5 43s-4 27-5 38c-3 17-6 36-10 55s-10 38-16 57c-7 19-15 37-24 54s-21 32-34 46c-13 13-29 24-47 32s-38 12-60 12c-14 0-28-2-43-5-14-3-28-8-42-13-14-6-27-12-39-20-13-8-24-16-34-24-26-21-44-41-55-61-4-6-6-12-8-17s-3-10-3-16c0-7 2-12 6-17 4-4 9-7 15-7 3 0 6 1 10 3s8 5 12 8 7 6 10 8 5 4 5 5c26 24 53 42 81 54s56 17 85 17c17 0 32-6 43-17 12-11 21-25 29-42 7-17 13-35 18-55 4-20 8-38 11-55 3-18 5-37 7-59s4-43 6-63c-14 14-29 28-45 41s-34 25-51 35c-18 10-36 18-55 24s-37 9-55 9c-10 0-19-2-27-6-9-4-16-10-22-18s-11-17-15-28-5-23-5-36c0-17 3-35 9-54 6-20 14-39 23-59s20-39 31-57 22-35 33-49 24-29 40-45 33-30 51-43 37-24 57-32c19-8 38-13 56-13 11 0 22 2 33 4 11 3 21 8 30 14s16 14 22 23 9 20 9 32c0 5 0 10-1 16 0 6-1 12-2 18s-2 12-2 18c-1 6-1 11-2 17zm320-314c0 10-1 19-4 28s-7 17-13 25c-11 16-29 24-53 24-8 0-17-1-26-2-9-2-16-4-23-6-7-3-13-6-17-10-5-4-7-9-7-14 0-9 2-19 7-29s11-20 19-29 16-16 25-22 18-9 26-9c10 0 20 1 28 2s15 4 21 7 10 8 13 14 4 13 4 23zm279 369c0 7-3 16-8 26-5 11-12 22-21 36-9 13-20 27-33 42s-26 30-41 46c-16 17-33 34-52 50s-38 32-59 47-41 27-61 35-39 12-57 12c-21 0-39-4-54-11s-29-17-39-29c-11-12-20-26-27-42s-12-32-16-50c-4-17-7-35-8-53s-2-35-2-51c0-6 0-16 1-28 1-13 2-26 4-40s4-27 6-40 4-23 6-31c4-15 15-29 31-42s33-19 52-19 29 12 29 35c0 11-1 23-3 35l-6 36c-4 22-7 41-8 59-2 17-2 33-2 46 0 15 1 30 3 44s4 27 8 38 8 20 13 27 11 10 19 10c9 0 18-1 28-2 9-2 21-6 34-13 26-14 53-33 82-57 10-8 22-18 35-30s26-23 39-36c13-12 25-24 36-36s20-22 27-30c1-2 2-3 4-6 2-2 4-5 6-7s4-4 7-6c2-2 5-2 7-2 5 0 8 1 11 2 2 1 5 6 7 12 3 7 5 14 5 19zm712-34c0 6-1 12-3 19s-5 13-8 20-7 13-10 19c-4 6-7 11-11 15-10 12-20 25-32 38s-24 27-37 40-26 26-39 38-27 23-40 32c-10 7-21 14-30 20-10 6-20 12-30 16-10 5-21 9-33 11-11 3-24 4-38 4-23 0-41-5-56-13-15-9-27-21-36-36s-16-32-21-51-9-39-11-60c-4-28-8-51-13-68s-11-25-17-25-12 1-17 4c-6 3-13 9-21 18-9 9-19 23-32 41s-30 41-51 71c-7 10-16 21-26 34s-21 25-32 36-23 22-34 30c-11 9-22 15-31 18-38-8-56-44-56-108 0-16 2-40 5-71 2-14 4-29 6-44 2-16 5-31 9-47 3-16 8-31 12-46 5-15 10-29 17-42 4-7 8-13 12-17s9-7 14-9 9-3 15-4c5-1 10-1 15-1 4 0 9 1 13 3s8 6 11 10 6 9 8 15 3 13 3 21c0 7-1 13-2 20-1 6-3 13-5 20s-4 14-7 21c-2 8-4 16-7 26-2 6-4 14-7 24s-6 20-8 31c-3 11-6 21-8 31s-4 19-4 26c5-6 12-14 19-23s14-20 22-31l24-33c8-11 16-22 24-32 11-13 21-26 31-37 10-12 21-22 32-30s23-15 37-20c13-5 28-7 44-7 19 0 35 4 47 12s22 19 29 33 13 31 16 50c4 19 6 40 9 63 1 12 3 24 5 36s5 23 9 33 9 18 15 25c6 6 14 10 23 10 14 0 29-4 45-11s33-17 51-30 36-28 55-45 38-35 56-55c6-6 12-12 17-19 6-6 11-12 16-17s10-9 15-12 10-5 14-5c2 0 4 0 6 1 2 0 5 1 7 3 2 1 4 3 5 6 1 2 2 6 2 10z"/><path class="fil0 str0" d="M10860 3717c0 8-4 18-11 30s-16 25-27 38-23 27-37 41c-13 14-26 27-39 39-8 7-19 17-33 30-15 13-31 27-49 42s-37 31-57 47-38 32-56 46c-17 14-33 26-46 37-13 10-23 18-29 22-19 12-36 22-52 28-16 7-30 10-43 10-10 0-19-1-26-3s-13-5-17-8-8-7-10-11-3-8-3-12c0-11 2-20 6-28s10-16 18-23 19-14 31-21c13-7 28-14 45-21 11-4 22-9 31-13s17-9 24-14 12-11 15-17c4-6 6-14 6-23 0-2-2-6-4-12-3-6-7-12-11-20-4-7-9-16-15-24-6-9-11-17-16-26s-10-17-15-24-8-14-11-19c-12-23-18-46-18-69 0-10 1-21 3-31 2-11 5-22 9-33 4-14 10-27 19-40s19-25 29-35c11-10 22-19 33-25s20-9 28-9c11 0 20 1 26 3 7 2 12 5 16 9s6 9 8 15 2 13 2 22c0 7-2 14-5 21-4 7-8 13-13 19s-11 12-16 17c-6 5-11 9-15 13-6 6-12 11-18 16s-10 9-13 13c0 19 5 36 14 52 4 8 10 17 17 29 7 11 14 23 21 35s14 23 20 34 11 19 15 26c4-2 11-6 19-12 9-6 19-13 30-21s24-17 37-28c13-10 26-21 39-31 13-11 26-21 38-32s23-21 33-30l21-21c6-6 10-11 14-14 4-4 8-7 11-9s6-3 10-3 7 2 10 4c3 3 5 6 6 9 2 3 2 7 3 10s1 5 1 5zm1084 29c0 4-1 9-4 15s-7 13-12 21c-3 5-7 10-12 17-5 6-10 13-16 19-6 7-11 13-16 19s-10 12-15 16c-17 17-35 34-54 50s-39 30-61 43c-21 13-43 23-65 30-23 8-46 11-69 11-21 0-39-4-54-11s-27-19-36-36c-3-5-6-14-9-26s-6-24-9-38c-3-13-5-26-7-39s-3-23-4-31c0-5-1-12-1-19-1-7-2-14-3-20s-2-12-4-16-4-7-6-7c-3 0-6 1-9 2-5 3-14 10-27 21-12 11-27 25-42 43-16 17-33 37-50 59-18 22-34 45-50 69-6 9-12 19-19 30-6 11-12 22-19 33-6 11-12 22-18 32s-11 20-16 28c-3 5-7 9-12 12-4 4-9 6-13 8s-8 4-12 5-6 1-8 1c-7 0-13-2-19-5s-11-7-15-11c-4-5-8-10-10-16-3-6-4-12-4-18 0-3 1-9 2-18s2-18 4-29 3-22 5-34 3-22 4-32c2-19 5-40 7-63 3-23 5-46 7-69s4-46 6-67c2-22 3-42 4-60 0-6 1-13 1-23 1-9 1-20 2-31s1-23 2-36c1-12 1-25 2-37s1-23 2-34c0-11 1-19 1-26 0-8 1-16 2-24 1-7 2-15 4-22s4-14 6-22c3-7 6-15 10-24 2-3 4-7 7-11s7-8 12-11 10-6 15-8c6-2 11-3 17-3 13 0 23 4 32 13s13 21 13 37c0 5-1 11-2 18s-2 15-4 22c-1 7-3 14-4 19-1 6-2 9-2 11-1 4-2 12-4 23s-3 24-5 39-4 31-6 49c-2 17-4 35-7 53-2 18-4 35-6 52s-4 32-6 45-3 24-4 32-2 13-2 14c-1 6-2 15-3 25-1 11-3 22-5 34-2 11-3 22-4 32s-2 17-3 22c3-4 6-9 11-16 4-7 9-13 13-21 5-7 9-14 13-20s7-11 9-14c5-7 10-15 17-24 6-9 13-18 21-28 7-9 15-19 22-28 8-9 15-17 23-25 9-10 20-19 31-30 12-10 24-19 37-28 13-8 26-15 39-21 13-5 26-8 39-8 3 0 7 1 12 2 5 2 10 4 15 7s9 6 14 10c4 4 7 9 9 14 4 11 7 24 10 39s5 32 8 48c2 17 5 33 7 49s5 31 8 44 6 24 11 32c4 8 9 12 15 12 8 0 16 0 23-1l21-3c7-2 13-4 20-6s14-6 22-9c17-8 31-16 43-23s23-15 34-23 21-17 32-26c11-10 23-21 38-34 15-14 28-25 39-34 11-8 19-13 24-13 4 0 7 1 9 2 2 2 4 3 5 6 1 2 2 5 2 7 0 3 1 5 1 7zm139-97c0-6-1-13-2-19s-4-10-7-11c-10 0-21 4-32 13s-23 21-33 37-20 35-28 58-14 48-18 75c14-10 28-21 42-33 14-11 27-24 39-36 12-13 21-26 28-40s11-29 11-44zm350 83c0 5-4 15-12 30-16 22-33 45-52 67s-39 43-61 63-44 38-67 55-47 31-71 44c-24 12-48 22-71 29-24 7-47 11-70 11-51 0-91-14-119-43-29-29-43-72-43-131 0-23 2-46 5-69s9-45 16-67c8-22 18-44 30-65s27-42 45-62c7-7 14-15 23-21 9-7 18-13 28-18s21-10 31-13c11-3 22-5 33-5 16 0 29 3 41 9 11 6 21 14 28 24s13 21 17 34 5 27 5 41c0 26-10 54-30 83s-47 58-82 88c-11 9-24 20-39 31s-32 24-50 38c1 7 3 15 6 21 4 7 9 12 15 17s14 9 23 12 19 4 30 4c15 0 30-2 47-6 16-4 33-9 49-15s32-14 47-22 29-17 42-26c22-16 43-33 64-51 20-18 40-37 59-56l24-24c16-15 30-22 42-22 6 0 10 2 12 6s3 8 3 11zm366-49c0 3-1 6-2 11s-3 9-6 13c-2 5-5 8-9 12-4 3-8 5-14 5h-8c-4 0-8 0-13-1-4 0-9-1-13-1h-9c-50 3-93 21-129 54-8 7-17 16-26 26s-17 21-26 34c-8 12-17 25-24 39-8 14-15 28-21 43-5 12-10 25-15 38s-9 27-13 41c-2 8-4 15-5 20-1 6-3 13-5 21-2 5-4 9-8 12-4 4-8 6-13 9-5 2-10 4-15 5s-10 2-15 2c-19 0-32-9-39-26s-11-43-11-78v-22c0-7 0-14 1-21 0-7 1-14 2-22s1-16 2-26c1-14 3-31 5-50s4-39 7-59c2-20 5-39 8-58s6-34 9-47c4-16 10-28 18-37 9-9 21-13 38-13 5 0 10 1 15 4 5 2 9 6 13 9 4 4 7 7 10 12 3 4 4 8 4 11v8c0 8-1 18-2 30-1 11-3 23-6 36s-5 26-8 39-6 25-8 37c-3 12-6 23-8 33s-4 18-5 25c10-22 22-43 34-64 12-20 25-39 39-57 14-17 28-33 44-47s33-25 51-33c14-7 27-11 39-15 12-3 23-5 32-5 11 0 23 1 35 4 12 2 23 6 33 11s18 10 25 17 10 14 10 22zm237-34c0-6-1-13-2-19s-4-10-7-11c-10 0-21 4-32 13s-23 21-33 37-20 35-28 58-14 48-18 75c14-10 28-21 42-33 14-11 27-24 39-36 12-13 21-26 28-40s11-29 11-44zm350 83c0 5-4 15-12 30-16 22-33 45-52 67s-39 43-61 63-44 38-67 55-47 31-71 44c-24 12-48 22-71 29-24 7-47 11-70 11-51 0-91-14-119-43-29-29-43-72-43-131 0-23 2-46 5-69s9-45 16-67c8-22 18-44 30-65s27-42 45-62c7-7 14-15 23-21 9-7 18-13 28-18s21-10 31-13c11-3 22-5 33-5 16 0 29 3 41 9 11 6 21 14 28 24s13 21 17 34 5 27 5 41c0 26-10 54-30 83s-47 58-82 88c-11 9-24 20-39 31s-32 24-50 38c1 7 3 15 6 21 4 7 9 12 15 17s14 9 23 12 19 4 30 4c15 0 30-2 47-6 16-4 33-9 49-15s32-14 47-22 29-17 42-26c22-16 43-33 64-51 20-18 40-37 59-56l24-24c16-15 30-22 42-22 6 0 10 2 12 6s3 8 3 11z"/><path class="fil1" d="M11147 4165h2227v82h-2227zM12899 795h698c138 0 241 7 309 20 68 14 129 43 182 86 54 44 98 101 134 174 36 72 54 154 54 243 0 97-22 187-66 268s-104 142-179 183c106 37 187 100 244 190 57 89 85 194 85 315 0 95-18 187-55 277s-87 161-151 215c-64 53-143 86-236 99-58 7-200 12-425 14h-594V796zm353 346v480h231c137 0 222-2 255-7 60-8 108-33 142-74 35-41 52-95 52-162 0-64-15-116-45-157-30-40-74-64-132-73-35-5-135-7-300-7h-202zm0 826v559h326c127 0 207-4 242-13 52-12 95-39 128-83 33-45 50-103 50-177 0-63-13-116-38-160s-62-76-110-96-152-30-313-30h-285zM14646 2878V795h353v2083zM15182 2878v-378l919-1353h-815V795h1277v326l-955 1405h991v352zM0 2204l380-41c23 137 69 237 138 301 70 64 163 96 282 96 125 0 219-28 282-85s95-124 95-200c0-49-13-91-40-126-26-34-73-64-140-89-45-17-149-47-310-91-208-56-354-125-438-206-118-114-177-254-177-419 0-106 28-205 83-297 56-92 136-162 240-211 105-48 230-72 379-72 241 0 423 57 545 173 122 115 186 269 192 462l-391 14c-17-107-52-184-106-231s-136-70-245-70c-112 0-200 25-264 75-41 32-62 75-62 129 0 49 19 91 58 126 49 45 168 91 357 140 189 48 329 98 419 149 91 52 162 122 213 211s77 199 77 330c0 119-31 230-92 334-62 104-148 181-260 231-112 51-252 76-420 76-244 0-431-60-562-182-131-121-208-297-234-528zM1900 2876V801h1428v351H2291v461h965v351h-965v562h1075v351H1900zm2231 0V1152h-571V801h1530v351h-569v1724h-391zM5329 2876V802h391v2074zM6091 2876V802h378l794 1390V802h361v2074h-390l-782-1363v1363zM8037 802h710c160 0 282 13 366 40 113 36 210 99 290 191 81 91 142 203 184 336 42 132 63 296 63 490 0 171-20 318-59 441-48 151-117 273-206 367-67 71-159 126-273 166-86 29-200 44-344 44h-732V802zm391 351v1373h290c108 0 186-7 234-20 63-17 115-46 157-86 42-41 75-107 101-200s40-220 40-380-13-283-40-369c-26-86-63-153-110-201s-107-81-180-98c-54-13-160-20-318-20h-174zM9969 2876V802h391v2074z"/><path class="fil2" d="M12936 1603c-375-27-799 12-1154 115l-148-252-253 443s-374 121-576 317l835-1428 430 730s528-16 867 75z"/><path d="M13235 1695c-888 96-1852 359-2372 1146l-2 2h-392s251-499 881-824c624-322 1223-375 1884-324z" fill="#ff6501"/><path class="fil2" d="M12809 2878l-395-5-457-789c103-53 204-109 328-129l524 923z"/><path class="fil0 str0" d="M17034 5c65 0 129 17 192 50 62 34 111 82 146 144 35 63 52 128 52 196 0 67-17 132-52 194-34 62-82 110-144 145-62 34-127 52-194 52-68 0-132-17-194-52-62-34-110-82-145-145-34-62-52-127-52-194 0-68 17-133 52-196 35-62 84-111 146-144 62-34 126-50 192-50zm0 65c-55 0-108 14-160 42s-93 68-122 121c-29 52-44 107-44 163s14 110 43 162 69 92 121 121 106 43 162 43 110-14 162-43 92-69 121-121 43-105 43-162c0-56-15-111-44-163s-70-93-122-121-105-42-160-42zm-171 541V192h144c49 0 85 4 107 12s40 21 53 41c13 19 20 40 20 61 0 31-11 57-33 80s-51 35-87 38c15 6 27 14 36 22 17 16 38 44 62 83l51 82h-82l-37-66c-29-52-53-85-71-98-12-10-30-14-54-14h-40v178h-68zm68-236h82c39 0 66-6 81-17 14-12 22-27 22-46 0-12-4-23-10-33-7-10-16-17-29-22-12-5-35-7-68-7h-77v126z"/></svg>